<?xml version="1.0" encoding="UTF-8" standalone="no"?>
<!-- Created with Inkscape (http://www.inkscape.org/) -->

<svg
   xmlns:dc="http://purl.org/dc/elements/1.1/"
   xmlns:cc="http://creativecommons.org/ns#"
   xmlns:rdf="http://www.w3.org/1999/02/22-rdf-syntax-ns#"
   xmlns:svg="http://www.w3.org/2000/svg"
   xmlns="http://www.w3.org/2000/svg"
   xmlns:sodipodi="http://sodipodi.sourceforge.net/DTD/sodipodi-0.dtd"
   xmlns:inkscape="http://www.inkscape.org/namespaces/inkscape"
   width="20.997824mm"
   height="7.4106913mm"
   viewBox="-1.3 0 20.997824 7.4106913"
   version="1.1"
   id="svg8"
   inkscape:version="0.92.2 5c3e80d, 2017-08-06"
   sodipodi:docname="logo.svg">
  <defs
     id="defs2" />
  <sodipodi:namedview
     id="base"
     pagecolor="#ffffff"
     bordercolor="#666666"
     borderopacity="1.0"
     inkscape:pageopacity="0.0"
     inkscape:pageshadow="2"
     inkscape:zoom="1.979899"
     inkscape:cx="184.90421"
     inkscape:cy="-50.183668"
     inkscape:document-units="mm"
     inkscape:current-layer="layer1"
     showgrid="false"
     viewbox-x="-1.3"
     fit-margin-top="0"
     fit-margin-left="0"
     fit-margin-right="0"
     fit-margin-bottom="0"
     inkscape:window-width="1440"
     inkscape:window-height="807"
     inkscape:window-x="0"
     inkscape:window-y="1"
     inkscape:window-maximized="1" />
  <metadata
     id="metadata5">
    <rdf:RDF>
      <cc:Work
         rdf:about="">
        <dc:format>image/svg+xml</dc:format>
        <dc:type
           rdf:resource="http://purl.org/dc/dcmitype/StillImage" />
        <dc:title></dc:title>
      </cc:Work>
    </rdf:RDF>
  </metadata>
  <g
     inkscape:label="Layer 1"
     inkscape:groupmode="layer"
     id="layer1"
     transform="translate(-3.6176472,-1.7843822)">
    <rect
       style="opacity:1;fill:#ff7600;fill-opacity:0.97916667;fill-rule:nonzero;stroke:none;stroke-width:1.27324677;stroke-linecap:round;stroke-linejoin:round;stroke-miterlimit:4;stroke-dasharray:none;stroke-dashoffset:0;stroke-opacity:1;paint-order:stroke markers fill"
       id="rect821"
       width="3.1020916"
       height="3.9687502"
       x="2.3176472"
       y="1.7843822" />
    <path
       inkscape:connector-curvature="0"
       id="path823"
       style="font-style:normal;font-variant:normal;font-weight:normal;font-stretch:normal;font-size:3.88055563px;line-height:1.25;font-family:'Chalkboard SE';-inkscape-font-specification:'Chalkboard SE, Normal';font-variant-ligatures:normal;font-variant-caps:normal;font-variant-numeric:normal;font-feature-settings:normal;text-align:center;letter-spacing:0px;word-spacing:0px;writing-mode:lr-tb;text-anchor:middle;fill:#ffffff;fill-opacity:1;stroke:none;stroke-width:0.26458332"
       d="M 3.2979848,5.1731444 Q 3.2336662,5.1645686 3.1907871,5.1345533 3.147908,5.1088258 3.1264685,5.0702347 l -0.012864,-0.025728 q -0.00858,-0.021439 -0.017152,-0.042879 -0.00858,-0.025727 -0.00858,-0.047167 V 3.0291911 q -0.038591,0.012864 -0.064319,0.025727 -0.02144,0.00858 -0.064319,0.00858 -0.08147,0 -0.1329251,-0.047167 -0.047167,-0.047167 -0.047167,-0.1114855 0,-0.094334 0.1071977,-0.1629405 0.1114856,-0.068607 0.2615623,-0.1114856 0.1500767,-0.047167 0.3130172,-0.068607 0.1672284,-0.02144 0.274426,-0.02144 0.3130172,0 0.557428,0.1029097 0.2444107,0.1029098 0.411639,0.278714 0.1672284,0.1715163 0.2529865,0.4030632 0.090046,0.231547 0.090046,0.4845335 0,0.2572744 -0.094334,0.505973 Q 4.8587829,4.5599738 4.6658271,4.7443538 4.5329019,4.872991 4.3656736,4.9501733 4.2027331,5.0230677 4.022641,5.0702347 3.8425489,5.1131138 3.6581689,5.1345533 3.4737889,5.1559928 3.2979848,5.1731444 Z M 3.7310633,2.891978 q -0.072894,0 -0.1457888,0.00858 -0.072894,0.00858 -0.1457888,0.02144 V 4.808677 Q 3.563835,4.7958086 3.701048,4.778657 3.8425489,4.7615054 3.975474,4.7272021 4.1083992,4.6928989 4.2241727,4.6371561 4.3399461,4.5814133 4.4171285,4.4956552 4.5543415,4.3455784 4.622948,4.1569105 4.695842,3.9682426 4.695842,3.7709989 4.695842,3.5994827 4.631523,3.4408301 4.5714931,3.2821776 4.4471438,3.1621162 4.3270824,3.0377669 4.1469903,2.9648725 3.9668982,2.891978 3.7310633,2.891978 Z" />
    <path
       inkscape:connector-curvature="0"
       id="path825"
       style="font-style:normal;font-variant:normal;font-weight:normal;font-stretch:normal;font-size:3.88055563px;line-height:1.25;font-family:'Chalkboard SE';-inkscape-font-specification:'Chalkboard SE, Normal';font-variant-ligatures:normal;font-variant-caps:normal;font-variant-numeric:normal;font-feature-settings:normal;text-align:center;letter-spacing:0px;word-spacing:0px;writing-mode:lr-tb;text-anchor:middle;fill:#000000;fill-opacity:1;stroke:none;stroke-width:0.26458332"
       d="m 6.9179664,4.6457319 q 0.08147,-0.00429 0.1329251,0.034303 0.055743,0.034303 0.068606,0.090046 0.017152,0.051455 -0.00858,0.1114856 -0.02144,0.055743 -0.094334,0.098622 -0.1543599,0.042879 -0.3301641,0.068607 -0.1758042,0.025727 -0.3558962,0.034303 -0.1800921,0.00429 -0.3558963,-0.00858 -0.1758042,-0.012864 -0.3344567,-0.051455 -0.068607,-0.034303 -0.098622,-0.08147 -0.030015,-0.051455 -0.025727,-0.098622 v -0.00429 -1.8823911 q -0.055743,-0.017152 -0.085758,-0.060031 -0.030015,-0.042879 -0.030015,-0.094334 0,-0.051455 0.034303,-0.098622 0.034303,-0.051455 0.1071977,-0.077182 0.1672284,-0.051455 0.3387446,-0.068607 0.1758042,-0.02144 0.3516084,-0.025727 0.1758042,-0.00858 0.3516084,-0.00858 0.1758041,0 0.3473204,-0.00858 0.094334,-0.00429 0.1457888,0.042879 0.055743,0.047167 0.064319,0.1071977 0.00858,0.060031 -0.034303,0.1200614 -0.038591,0.055743 -0.1329251,0.077182 -0.2572744,0.012864 -0.5488521,0.00858 -0.2872897,-0.00429 -0.5574279,0.038591 v 0.7546716 q 0.2229712,0.00858 0.4459423,0 0.2272591,-0.012864 0.4545181,-0.034303 0.094334,-0.00429 0.1457889,0.042879 0.055743,0.047167 0.064319,0.1071976 0.00858,0.060031 -0.034303,0.1200614 -0.038591,0.055743 -0.1329251,0.077182 -0.2358349,0.02144 -0.4759576,0.034303 -0.2358349,0.012864 -0.4673819,0.00429 v 0.6946463 q 0.2572728,0.038591 0.5316989,0.021439 0.2787139,-0.021439 0.5188367,-0.085758 z" />
    <path
       inkscape:connector-curvature="0"
       id="path827"
       style="font-style:normal;font-variant:normal;font-weight:normal;font-stretch:normal;font-size:3.88055563px;line-height:1.25;font-family:'Chalkboard SE';-inkscape-font-specification:'Chalkboard SE, Normal';font-variant-ligatures:normal;font-variant-caps:normal;font-variant-numeric:normal;font-feature-settings:normal;text-align:center;letter-spacing:0px;word-spacing:0px;writing-mode:lr-tb;text-anchor:middle;fill:#000000;fill-opacity:1;stroke:none;stroke-width:0.26458332"
       d="m 9.3660261,2.5875367 q 0.068606,-0.1114856 0.1672284,-0.1114856 0.064319,0 0.1157734,0.047167 0.051455,0.047167 0.051455,0.1243493 0,0.038591 -0.021439,0.094334 Q 9.3746019,3.2778897 9.1344791,3.8653329 8.8986443,4.4527761 8.679961,5.0273556 8.654234,5.0959626 8.607067,5.1302654 8.5599,5.1645684 8.508445,5.1645684 q -0.047167,0 -0.094334,-0.030015 Q 8.3712317,5.1045379 8.3412164,5.0445072 8.1139573,4.457064 7.8909862,3.8739087 7.6723029,3.2907534 7.4493318,2.7033101 q 0,-0.00858 -0.00429,-0.017152 0,-0.012864 0,-0.02144 0,-0.090046 0.047167,-0.137213 0.051455,-0.051455 0.1157735,-0.051455 0.098622,0 0.1672284,0.098622 0.1114856,0.2872898 0.2015316,0.5317005 0.090046,0.2444107 0.1758042,0.4759576 0.085758,0.2272591 0.1715162,0.4545182 0.085758,0.2229711 0.1800921,0.4802455 Q 8.5513238,4.3927454 8.6027787,4.2683961 8.6585215,4.1397589 8.7099764,4.0154096 8.8600531,3.6509375 9.0144177,3.2907534 9.1687824,2.9305692 9.3660261,2.5875367 Z" />
    <path
       inkscape:connector-curvature="0"
       id="path829"
       style="font-style:normal;font-variant:normal;font-weight:normal;font-stretch:normal;font-size:3.88055563px;line-height:1.25;font-family:'Chalkboard SE';-inkscape-font-specification:'Chalkboard SE, Normal';font-variant-ligatures:normal;font-variant-caps:normal;font-variant-numeric:normal;font-feature-settings:normal;text-align:center;letter-spacing:0px;word-spacing:0px;writing-mode:lr-tb;text-anchor:middle;fill:#000000;fill-opacity:1;stroke:none;stroke-width:0.26458332"
       d="m 11.548864,4.6457319 q 0.08147,-0.00429 0.132925,0.034303 0.05574,0.034303 0.06861,0.090046 0.01715,0.051455 -0.0086,0.1114856 -0.02144,0.055743 -0.09433,0.098622 -0.154365,0.042879 -0.330169,0.068607 -0.175804,0.025727 -0.355896,0.034303 -0.180092,0.00429 -0.355897,-0.00858 -0.175799,-0.01286 -0.334452,-0.051451 -0.06861,-0.034303 -0.09862,-0.08147 -0.03002,-0.051455 -0.02573,-0.098622 v -0.00429 -1.8823911 q -0.05574,-0.017152 -0.08576,-0.060031 -0.03002,-0.042879 -0.03002,-0.094334 0,-0.051455 0.0343,-0.098622 0.0343,-0.051455 0.107198,-0.077182 0.167228,-0.051455 0.338744,-0.068607 0.175805,-0.02144 0.351609,-0.025727 0.175804,-0.00858 0.351608,-0.00858 0.175804,0 0.347321,-0.00858 0.09433,-0.00429 0.145788,0.042879 0.05574,0.047167 0.06432,0.1071977 0.0086,0.060031 -0.0343,0.1200614 -0.03859,0.055743 -0.132925,0.077182 -0.257274,0.012864 -0.548852,0.00858 -0.28729,-0.00429 -0.557428,0.038591 v 0.7546716 q 0.222972,0.00858 0.445943,0 0.227259,-0.012864 0.454518,-0.034303 0.09433,-0.00429 0.145789,0.042879 0.05574,0.047167 0.06432,0.1071976 0.0086,0.060031 -0.0343,0.1200614 -0.03859,0.055743 -0.132925,0.077182 -0.235835,0.02144 -0.475958,0.034303 -0.235835,0.012864 -0.467382,0.00429 v 0.6946463 q 0.257274,0.038591 0.531701,0.021439 0.278713,-0.021439 0.518836,-0.085758 z" />
    <path
       inkscape:connector-curvature="0"
       id="path831"
       style="font-style:normal;font-variant:normal;font-weight:normal;font-stretch:normal;font-size:3.88055563px;line-height:1.25;font-family:'Chalkboard SE';-inkscape-font-specification:'Chalkboard SE, Normal';font-variant-ligatures:normal;font-variant-caps:normal;font-variant-numeric:normal;font-feature-settings:normal;text-align:center;letter-spacing:0px;word-spacing:0px;writing-mode:lr-tb;text-anchor:middle;fill:#000000;fill-opacity:1;stroke:none;stroke-width:0.26458332"
       d="m 13.705346,4.7529296 q 0.08147,0.025727 0.120062,0.077182 0.03859,0.051455 0.0343,0.1071977 0,0.051455 -0.04288,0.1029097 -0.04288,0.047167 -0.124349,0.064319 -0.330169,0.00858 -0.656051,0.00858 -0.32588,0.00429 -0.651761,0.012864 -0.167229,-0.017152 -0.18438,-0.18438 0,-0.5660037 0.0043,-1.1277195 0.0043,-0.5617158 0.0043,-1.1320074 0.01715,-0.08147 0.06432,-0.1243493 0.05145,-0.042879 0.102909,-0.042879 0.05574,-0.00429 0.107198,0.034303 0.05146,0.038591 0.07718,0.1200614 0,0.5317004 -0.0043,1.0548251 -0.0043,0.5188367 -0.0043,1.0505371 0.28729,-0.00858 0.57458,-0.00858 0.28729,-0.00429 0.578867,-0.012864 z" />
    <path
       inkscape:connector-curvature="0"
       id="path833"
       style="font-style:normal;font-variant:normal;font-weight:normal;font-stretch:normal;font-size:3.88055563px;line-height:1.25;font-family:'Chalkboard SE';-inkscape-font-specification:'Chalkboard SE, Normal';font-variant-ligatures:normal;font-variant-caps:normal;font-variant-numeric:normal;font-feature-settings:normal;text-align:center;letter-spacing:0px;word-spacing:0px;writing-mode:lr-tb;text-anchor:middle;fill:#000000;fill-opacity:1;stroke:none;stroke-width:0.26458332"
       d="m 16.041502,3.9382273 q 0.01286,-0.085758 0.02144,-0.1715163 0.01286,-0.090046 0.01286,-0.1800921 0,-0.1114855 -0.02144,-0.227259 -0.02144,-0.1157735 -0.07718,-0.2143954 -0.09862,-0.1843799 -0.28729,-0.2830018 -0.188667,-0.098622 -0.394487,-0.098622 -0.244411,0 -0.437366,0.141501 -0.120062,0.090046 -0.214396,0.2186832 -0.09005,0.1286372 -0.154364,0.274426 -0.06003,0.1457889 -0.09433,0.3001535 -0.03002,0.1500768 -0.03002,0.2872898 0,0.1715162 0.04288,0.3301688 0.04717,0.1543646 0.141501,0.274426 0.09862,0.1157735 0.244411,0.1886679 0.145789,0.072894 0.343033,0.072894 0.08147,0 0.16294,-0.021439 0.08576,-0.02144 0.154365,-0.060031 0.124349,-0.068606 0.218683,-0.1672284 0.09862,-0.098622 0.171516,-0.2143953 0.0729,-0.1157735 0.124349,-0.2444107 0.05146,-0.1329251 0.08576,-0.2615623 z m 0.343032,0.042879 q -0.03859,0.1500767 -0.111485,0.3173051 -0.06861,0.1672283 -0.167229,0.3173051 -0.09433,0.1500767 -0.222971,0.274426 -0.124349,0.1243493 -0.274426,0.1886679 -0.06861,0.025727 -0.120061,0.042879 -0.05145,0.02144 -0.10291,0.034303 -0.05146,0.012864 -0.111485,0.02144 -0.05574,0.012864 -0.128638,0.017152 -0.0086,0 -0.02144,0 -0.01286,0.00429 -0.02573,0.00429 -0.111485,0 -0.227259,-0.038591 -0.11577,-0.034306 -0.21868,-0.068609 -0.175804,-0.064319 -0.295866,-0.18438 -0.120061,-0.1200614 -0.197243,-0.2701381 -0.0729,-0.1543646 -0.107198,-0.3258809 -0.03002,-0.1715163 -0.03002,-0.3430326 0,-0.064319 0.0043,-0.1243493 0.0043,-0.064319 0.01286,-0.1243493 0.02144,-0.137213 0.0729,-0.2958655 0.05574,-0.1586526 0.137213,-0.3087293 0.08147,-0.1543646 0.18438,-0.2830019 0.107197,-0.1286372 0.227259,-0.2058195 0.150077,-0.098622 0.321593,-0.1457888 0.171516,-0.051455 0.34732,-0.051455 0.291578,0 0.548852,0.137213 0.257275,0.137213 0.407352,0.4202149 0.07289,0.137213 0.102909,0.2915777 0.03002,0.1500767 0.03002,0.3044413 0,0.098622 -0.0086,0.2015317 -0.0086,0.098622 -0.02573,0.1972437 z" />
    <path
       inkscape:connector-curvature="0"
       id="path835"
       style="font-style:normal;font-variant:normal;font-weight:normal;font-stretch:normal;font-size:3.88055563px;line-height:1.25;font-family:'Chalkboard SE';-inkscape-font-specification:'Chalkboard SE, Normal';font-variant-ligatures:normal;font-variant-caps:normal;font-variant-numeric:normal;font-feature-settings:normal;text-align:center;letter-spacing:0px;word-spacing:0px;writing-mode:lr-tb;text-anchor:middle;fill:#000000;fill-opacity:1;stroke:none;stroke-width:0.26458332"
       d="m 16.905682,2.7075981 q 0.02144,-0.085758 0.06861,-0.1243493 0.04717,-0.042879 0.107198,-0.042879 0.0343,0 0.05146,0.00858 0.162941,-0.072894 0.343033,-0.1200614 0.180092,-0.047167 0.360184,-0.047167 0.120061,0 0.231547,0.025727 0.115773,0.02144 0.222971,0.08147 0.115773,0.060031 0.210107,0.1543646 0.09433,0.094334 0.158653,0.2101075 0.06432,0.1114856 0.09862,0.2401228 0.03859,0.1286372 0.03859,0.2572744 0,0.2486986 -0.132925,0.458806 -0.141501,0.2186832 -0.347321,0.3516083 -0.205819,0.1286372 -0.471669,0.1500768 -0.05146,0.00429 -0.107198,0.00858 -0.05145,0 -0.09862,0 -0.09862,0 -0.192956,-0.00858 -0.09433,-0.00858 -0.188668,-0.02144 0,0.1629405 0,0.36876 0,0.2058196 0.0043,0.36876 -0.0043,0.098622 -0.06003,0.1457888 -0.05146,0.051455 -0.115774,0.051455 -0.06003,0 -0.111486,-0.047167 -0.05145,-0.042879 -0.06432,-0.1372131 v -0.836145 q -0.01286,0 -0.03002,-0.00858 -0.06432,-0.034303 -0.09433,-0.08147 -0.03002,-0.047167 -0.03002,-0.094334 0,-0.055743 0.03859,-0.098622 0.03859,-0.047167 0.111486,-0.064319 v -1.149159 z m 1.217766,0.090046 q -0.132926,-0.068607 -0.291578,-0.068607 -0.150077,0 -0.300154,0.047167 -0.150076,0.042879 -0.274426,0.1029097 v 1.0548251 q 0.09005,0.02144 0.180092,0.034303 0.09005,0.00858 0.18438,0.00858 0.09005,0 0.180093,-0.012864 0.124349,-0.02144 0.24441,-0.060031 0.124349,-0.042879 0.218683,-0.1415009 0.08576,-0.094334 0.128638,-0.2058195 0.04288,-0.1114856 0.04288,-0.2229712 0,-0.1629404 -0.08147,-0.3044413 -0.07718,-0.1457889 -0.231546,-0.231547 z" />
    <path
       inkscape:connector-curvature="0"
       id="path837"
       style="font-style:normal;font-variant:normal;font-weight:normal;font-stretch:normal;font-size:3.88055563px;line-height:1.25;font-family:'Chalkboard SE';-inkscape-font-specification:'Chalkboard SE, Normal';font-variant-ligatures:normal;font-variant-caps:normal;font-variant-numeric:normal;font-feature-settings:normal;text-align:center;letter-spacing:0px;word-spacing:0px;writing-mode:lr-tb;text-anchor:middle;fill:#000000;fill-opacity:1;stroke:none;stroke-width:0.26458332"
       d="m 20.598441,4.6457319 q 0.08147,-0.00429 0.132925,0.034303 0.05574,0.034303 0.06861,0.090046 0.01715,0.051455 -0.0086,0.1114856 -0.02144,0.055743 -0.09433,0.098622 -0.154365,0.042879 -0.330169,0.068607 -0.175804,0.025727 -0.355896,0.034303 -0.180092,0.00429 -0.355897,-0.00858 -0.175804,-0.012864 -0.334456,-0.051455 -0.06861,-0.034303 -0.09862,-0.08147 -0.03002,-0.051455 -0.02573,-0.098622 v -0.00429 -1.8823911 q -0.05574,-0.017152 -0.08576,-0.060031 -0.03002,-0.042879 -0.03002,-0.094334 0,-0.051455 0.0343,-0.098622 0.0343,-0.051455 0.107198,-0.077182 0.167228,-0.051455 0.338744,-0.068607 0.175805,-0.02144 0.351609,-0.025727 0.175804,-0.00858 0.351608,-0.00858 0.175804,0 0.347321,-0.00858 0.09433,-0.00429 0.145788,0.042879 0.05574,0.047167 0.06432,0.1071977 0.0086,0.060031 -0.0343,0.1200614 -0.03859,0.055743 -0.132925,0.077182 -0.257275,0.012864 -0.548852,0.00858 -0.28729,-0.00429 -0.557428,0.038591 v 0.7546716 q 0.222971,0.00858 0.445942,0 0.227259,-0.012864 0.454518,-0.034303 0.09433,-0.00429 0.145789,0.042879 0.05574,0.047167 0.06432,0.1071976 0.0086,0.060031 -0.0343,0.1200614 -0.03859,0.055743 -0.132925,0.077182 -0.235835,0.02144 -0.475957,0.034303 -0.235835,0.012864 -0.467382,0.00429 v 0.6946504 q 0.257274,0.038591 0.5317,0.021439 0.278714,-0.021439 0.518837,-0.085758 z" />
    <path
       inkscape:connector-curvature="0"
       id="path839"
       style="font-style:normal;font-variant:normal;font-weight:normal;font-stretch:normal;font-size:3.88055563px;line-height:1.25;font-family:'Chalkboard SE';-inkscape-font-specification:'Chalkboard SE, Normal';font-variant-ligatures:normal;font-variant-caps:normal;font-variant-numeric:normal;font-feature-settings:normal;text-align:center;letter-spacing:0px;word-spacing:0px;writing-mode:lr-tb;text-anchor:middle;fill:#000000;fill-opacity:1;stroke:none;stroke-width:0.26458332"
       d="m 21.640067,4.9673249 q -0.0043,0.098622 -0.06003,0.1457889 -0.05145,0.051455 -0.115774,0.051455 -0.06003,0 -0.111485,-0.047167 -0.05146,-0.042879 -0.06432,-0.1372131 V 2.9348571 q -0.06861,-0.00858 -0.111486,-0.051455 -0.03859,-0.047167 -0.03859,-0.1114855 0,-0.038591 0.01715,-0.08147 0.02144,-0.042879 0.06432,-0.077182 0.18438,-0.1157735 0.41164,-0.18438 0.227259,-0.072894 0.458806,-0.072894 0.188667,0 0.360184,0.051455 0.175804,0.051455 0.321593,0.1672283 0.171516,0.1372131 0.248698,0.3001535 0.07718,0.1629405 0.07718,0.3344567 0,0.1372131 -0.04717,0.2701382 -0.04288,0.1329251 -0.12435,0.2529865 -0.08147,0.1157735 -0.197243,0.2143953 -0.111486,0.094334 -0.252987,0.1586526 0.162941,0.1843799 0.351609,0.3901995 0.188667,0.2058195 0.351608,0.3859116 0.04717,0.060031 0.04717,0.1329251 0,0.072894 -0.04717,0.1157735 -0.04717,0.047167 -0.115774,0.047167 -0.0343,0 -0.07718,-0.017152 -0.03859,-0.012864 -0.07289,-0.051455 -0.02573,-0.030015 -0.09005,-0.098622 -0.06432,-0.072894 -0.145789,-0.1586526 -0.08147,-0.090046 -0.171516,-0.1886679 -0.09005,-0.1029097 -0.171517,-0.1886679 -0.07718,-0.090046 -0.141501,-0.1586525 -0.06432,-0.068607 -0.09005,-0.098622 -0.115773,0.02144 -0.231547,0.030015 -0.115773,0.00858 -0.231547,0.012864 v 0.7075046 z m 0.904749,-2.1268017 q -0.10291,-0.072894 -0.227259,-0.1029098 -0.120062,-0.030015 -0.248699,-0.030015 -0.111486,0 -0.218683,0.02144 -0.107198,0.02144 -0.210108,0.060031 V 3.908213 q 0.162941,-0.00858 0.325881,-0.025727 0.162941,-0.017152 0.321593,-0.077182 0.09433,-0.034303 0.175804,-0.098622 0.08576,-0.064319 0.150077,-0.1457888 0.06432,-0.08147 0.09862,-0.1715163 0.03859,-0.094334 0.03859,-0.18438 0,-0.098622 -0.04717,-0.1929558 -0.04717,-0.094334 -0.158652,-0.1715162 z" />
    <g
       id="g880"
       transform="translate(4.1130341,-1.5281174)">
      <path
         d="m 8.1230982,7.7083488 q 0.016981,-0.067925 0.05434,-0.098491 0.037359,-0.033963 0.084906,-0.033963 0.02717,0 0.040755,0.0068 0.1290578,-0.057737 0.2717007,-0.095095 0.1426427,-0.037359 0.2852855,-0.037359 0.095095,0 0.1833979,0.020377 0.091699,0.016982 0.1766054,0.064529 0.091699,0.047548 0.1664166,0.1222652 0.074718,0.074718 0.1256615,0.1664166 0.050944,0.088303 0.078114,0.1901904 0.030566,0.1018878 0.030566,0.2037755 0,0.1969829 -0.1052839,0.3633996 Q 9.4034871,8.7543961 9.2404668,8.85968 9.0774464,8.9615677 8.8668784,8.978549 q -0.040755,0.0034 -0.084906,0.0068 -0.040755,0 -0.078114,0 -0.078114,0 -0.1528315,-0.0068 -0.074718,-0.0068 -0.1494354,-0.016981 0,0.1290579 0,0.2920782 0,0.1630203 0.0034,0.2920781 -0.0034,0.078114 -0.047548,0.1154727 -0.040755,0.040755 -0.091699,0.040755 -0.047548,0 -0.088303,-0.037359 Q 8.1366825,9.63063 8.1264945,9.5559128 V 8.8936426 q -0.010189,0 -0.023774,-0.0068 -0.050944,-0.02717 -0.074718,-0.064529 -0.023773,-0.037359 -0.023773,-0.074718 0,-0.044151 0.030566,-0.078114 0.030566,-0.037359 0.088303,-0.050944 V 7.7083453 Z m 0.964537,0.071321 q -0.105284,-0.054341 -0.2309455,-0.054341 -0.118869,0 -0.237738,0.037359 -0.118869,0.033963 -0.2173605,0.08151 V 8.679678 q 0.071321,0.016982 0.1426428,0.02717 0.071321,0.0068 0.1460391,0.0068 0.071321,0 0.1426428,-0.010189 0.098491,-0.016981 0.1935867,-0.047548 0.098491,-0.033963 0.1732091,-0.1120764 0.067925,-0.074718 0.1018877,-0.1630204 0.033962,-0.088303 0.033962,-0.1766054 0,-0.1290578 -0.064529,-0.2411343 -0.061133,-0.1154749 -0.183398,-0.1834001 z"
         style="font-style:normal;font-variant:normal;font-weight:normal;font-stretch:normal;font-size:3.88055563px;line-height:1.25;font-family:'Chalkboard SE';-inkscape-font-specification:'Chalkboard SE, Normal';font-variant-ligatures:normal;font-variant-caps:normal;font-variant-numeric:normal;font-feature-settings:normal;text-align:center;letter-spacing:0px;word-spacing:0px;writing-mode:lr-tb;text-anchor:middle;fill:#000000;fill-opacity:1;stroke:none;stroke-width:0.20956449"
         id="path841"
         inkscape:connector-curvature="0" />
      <path
         d="m 11.448724,8.6830747 q 0.01019,-0.067925 0.01698,-0.1358503 0.01019,-0.071321 0.01019,-0.1426428 0,-0.088303 -0.01698,-0.1800017 -0.01698,-0.091699 -0.06113,-0.1698128 -0.07811,-0.1460391 -0.22755,-0.224153 -0.149435,-0.078114 -0.312455,-0.078114 -0.193587,0 -0.346419,0.1120765 -0.09509,0.071321 -0.169813,0.1732091 -0.07132,0.1018877 -0.122265,0.2173605 -0.04755,0.1154727 -0.07472,0.237738 -0.02377,0.118869 -0.02377,0.2275492 0,0.1358503 0.03396,0.2615119 0.03736,0.1222652 0.112077,0.2173604 0.07811,0.091699 0.193586,0.1494353 0.115473,0.057736 0.271701,0.057736 0.06453,0 0.129058,-0.016982 0.06793,-0.016982 0.122265,-0.047548 0.09849,-0.054339 0.173209,-0.1324531 0.07811,-0.078114 0.135851,-0.1698128 0.05774,-0.091699 0.09849,-0.1935867 0.04076,-0.1052839 0.06793,-0.2071717 z m 0.2717,0.033962 q -0.03057,0.1188691 -0.0883,0.2513231 -0.05434,0.132454 -0.132454,0.251323 -0.07472,0.118869 -0.176605,0.2173605 -0.09849,0.098491 -0.217361,0.1494353 -0.05434,0.020377 -0.0951,0.033962 -0.04075,0.016982 -0.08151,0.02717 -0.04075,0.010189 -0.0883,0.016981 -0.04415,0.010189 -0.101887,0.013585 -0.0068,0 -0.01698,0 -0.01019,0.0034 -0.02038,0.0034 -0.0883,0 -0.180002,-0.030566 -0.0917,-0.027173 -0.173209,-0.054343 Q 10.20909,9.545724 10.113995,9.4506288 10.018899,9.3555336 9.9577668,9.2366646 9.9000305,9.1143993 9.8728604,8.978549 9.8490866,8.8426988 9.8490866,8.7068485 q 0,-0.050944 0.0034,-0.098491 0.0034,-0.050944 0.010189,-0.098491 0.01698,-0.1086812 0.057734,-0.2343427 0.044151,-0.1256615 0.1086804,-0.2445305 0.06453,-0.1222653 0.146039,-0.224153 0.08491,-0.1018877 0.180001,-0.1630203 0.118869,-0.078114 0.25472,-0.1154728 0.13585,-0.040755 0.275097,-0.040755 0.230945,0 0.434721,0.1086802 0.203775,0.1086802 0.322644,0.3328332 0.05774,0.1086802 0.08151,0.2309455 0.02377,0.1188689 0.02377,0.2411342 0,0.078114 -0.0068,0.1596241 -0.0068,0.078114 -0.02038,0.1562278 z"
         style="font-style:normal;font-variant:normal;font-weight:normal;font-stretch:normal;font-size:3.88055563px;line-height:1.25;font-family:'Chalkboard SE';-inkscape-font-specification:'Chalkboard SE, Normal';font-variant-ligatures:normal;font-variant-caps:normal;font-variant-numeric:normal;font-feature-settings:normal;text-align:center;letter-spacing:0px;word-spacing:0px;writing-mode:lr-tb;text-anchor:middle;fill:#000000;fill-opacity:1;stroke:none;stroke-width:0.20956449"
         id="path843"
         inkscape:connector-curvature="0" />
      <path
         d="m 12.42528,9.4981764 q -0.0034,0.078114 -0.04755,0.1154727 -0.04076,0.040755 -0.0917,0.040755 -0.04755,0 -0.0883,-0.037359 -0.04076,-0.033962 -0.05094,-0.1086798 V 7.8883505 q -0.05434,-0.0068 -0.0883,-0.040755 -0.03057,-0.037359 -0.03057,-0.088303 0,-0.030566 0.01358,-0.064529 0.01698,-0.033962 0.05094,-0.061132 0.146039,-0.091699 0.326041,-0.146039 0.180002,-0.057736 0.3634,-0.057736 0.149435,0 0.285285,0.040755 0.139247,0.040755 0.25472,0.1324541 0.13585,0.1086802 0.196982,0.237738 0.06113,0.1290577 0.06113,0.264908 0,0.1086802 -0.03736,0.2139642 -0.03396,0.105284 -0.09849,0.2003792 -0.06453,0.091699 -0.156228,0.1698129 -0.0883,0.074718 -0.200379,0.1256615 0.129058,0.146039 0.278493,0.3090594 0.149435,0.1630204 0.278493,0.3056631 0.03736,0.047548 0.03736,0.1052841 0,0.057736 -0.03736,0.091699 -0.03736,0.037359 -0.0917,0.037359 -0.02717,0 -0.06113,-0.013585 -0.03056,-0.01019 -0.05773,-0.040756 -0.02038,-0.023774 -0.07132,-0.078114 -0.05094,-0.057736 -0.115473,-0.1256614 -0.06453,-0.071321 -0.13585,-0.1494354 -0.07132,-0.08151 -0.13585,-0.1494353 -0.06113,-0.071321 -0.112077,-0.1256615 -0.05094,-0.05434 -0.07132,-0.078114 -0.0917,0.016981 -0.183398,0.023774 -0.0917,0.00679 -0.183398,0.010189 z m 0.71661,-1.6845436 q -0.08151,-0.057736 -0.180001,-0.08151 -0.09509,-0.023774 -0.196983,-0.023774 -0.0883,0 -0.173209,0.016982 -0.08491,0.016982 -0.166417,0.047548 V 8.659302 q 0.129058,-0.0068 0.258116,-0.020377 0.129057,-0.013585 0.254719,-0.061132 0.07472,-0.02717 0.139246,-0.078114 0.06793,-0.050944 0.118869,-0.1154727 0.05094,-0.064529 0.07811,-0.1358503 0.03057,-0.074718 0.03057,-0.1460391 0,-0.078114 -0.03736,-0.1528316 -0.03736,-0.074718 -0.125661,-0.1358503 z"
         style="font-style:normal;font-variant:normal;font-weight:normal;font-stretch:normal;font-size:3.88055563px;line-height:1.25;font-family:'Chalkboard SE';-inkscape-font-specification:'Chalkboard SE, Normal';font-variant-ligatures:normal;font-variant-caps:normal;font-variant-numeric:normal;font-feature-settings:normal;text-align:center;letter-spacing:0px;word-spacing:0px;writing-mode:lr-tb;text-anchor:middle;fill:#000000;fill-opacity:1;stroke:none;stroke-width:0.20956449"
         id="path845"
         inkscape:connector-curvature="0" />
      <path
         d="m 15.416109,7.5691023 q 0.06113,0.020378 0.0917,0.061132 0.03057,0.040755 0.02717,0.084906 -0.0034,0.047548 -0.03736,0.084906 -0.03396,0.033963 -0.101888,0.047548 l -0.529816,0.0034 0.0034,1.6573736 q -0.0034,0.078114 -0.04755,0.1154727 -0.04076,0.040755 -0.0917,0.040755 -0.04755,0 -0.0883,-0.037359 -0.04076,-0.033962 -0.05094,-0.1086802 l -0.0034,-1.6675623 h -0.536608 q -0.07132,-0.013585 -0.108681,-0.05434 -0.03396,-0.044152 -0.03057,-0.091699 0.0034,-0.050944 0.04075,-0.091699 0.04076,-0.040755 0.118869,-0.040755 0.04075,0 0.142643,0 0.105284,0 0.241135,0 0.13585,0 0.288682,0 0.152831,0 0.288681,0 0.135851,0 0.237738,0 0.105284,-0.0034 0.146039,-0.0034 z"
         style="font-style:normal;font-variant:normal;font-weight:normal;font-stretch:normal;font-size:3.88055563px;line-height:1.25;font-family:'Chalkboard SE';-inkscape-font-specification:'Chalkboard SE, Normal';font-variant-ligatures:normal;font-variant-caps:normal;font-variant-numeric:normal;font-feature-settings:normal;text-align:center;letter-spacing:0px;word-spacing:0px;writing-mode:lr-tb;text-anchor:middle;fill:#000000;fill-opacity:1;stroke:none;stroke-width:0.20956449"
         id="path847"
         inkscape:connector-curvature="0" />
      <path
         d="m 17.395072,9.4845914 q -0.0034,0.064529 -0.03396,0.105284 -0.03056,0.040755 -0.07471,0.047548 -0.04415,0.010189 -0.0883,-0.013585 -0.04415,-0.023773 -0.07471,-0.08151 -0.02038,-0.1596241 -0.05773,-0.3124558 -0.03736,-0.1562278 -0.0883,-0.3090594 l -0.900009,0.0068 q -0.0068,0 -0.01698,0 -0.0068,-0.0034 -0.01358,-0.0034 -0.08491,0.2886818 -0.152831,0.5977412 -0.02717,0.071321 -0.07811,0.095095 -0.05095,0.023773 -0.09849,0.010189 -0.04415,-0.013585 -0.07471,-0.061132 -0.02717,-0.047548 -0.01358,-0.1222653 0.112076,-0.4924573 0.268304,-0.9611407 0.159624,-0.4720798 0.397362,-0.9203858 0.02038,-0.064529 0.0951,-0.08151 0.03736,-0.013585 0.07132,-0.0034 0.03396,0.0068 0.05773,0.030566 0.0034,0 0.0034,0.0034 0,0 0.0034,0 0.176606,0.1698129 0.295475,0.3837771 0.118869,0.2139641 0.21736,0.4347209 0.03736,0.078114 0.06793,0.1562278 0.03396,0.078114 0.06453,0.1562279 l 0.180001,-0.0034 q 0.06453,0.020377 0.0951,0.061132 0.03057,0.040755 0.02717,0.084907 0,0.040755 -0.03396,0.08151 -0.03396,0.037359 -0.09849,0.050944 h -0.07133 q 0.04415,0.1392465 0.07472,0.2818894 0.03396,0.1392465 0.05095,0.2852856 z M 16.457706,7.8509916 q -0.0951,0.1935867 -0.176606,0.3939659 -0.07811,0.2003792 -0.146039,0.4041546 l 0.740384,-0.0068 q -0.04415,-0.1018844 -0.0917,-0.2003759 -0.04415,-0.098491 -0.0917,-0.1969829 -0.05434,-0.098491 -0.10868,-0.2003792 -0.05434,-0.1018877 -0.125661,-0.1935867 z"
         style="font-style:normal;font-variant:normal;font-weight:normal;font-stretch:normal;font-size:3.88055563px;line-height:1.25;font-family:'Chalkboard SE';-inkscape-font-specification:'Chalkboard SE, Normal';font-variant-ligatures:normal;font-variant-caps:normal;font-variant-numeric:normal;font-feature-settings:normal;text-align:center;letter-spacing:0px;word-spacing:0px;writing-mode:lr-tb;text-anchor:middle;fill:#000000;fill-opacity:1;stroke:none;stroke-width:0.20956449"
         id="path849"
         inkscape:connector-curvature="0" />
      <path
         d="m 18.89724,9.3283635 q 0.06453,0.020378 0.09509,0.061132 0.03057,0.040755 0.02717,0.084906 0,0.040755 -0.03396,0.08151 -0.03396,0.037359 -0.09849,0.050944 -0.261512,0.0068 -0.519628,0.0068 -0.258114,0.0034 -0.51623,0.010189 -0.132455,-0.013585 -0.146039,-0.1460391 0,-0.448306 0.0034,-0.8932156 0.0034,-0.4449097 0.0034,-0.8966119 0.01358,-0.064529 0.05095,-0.098492 0.04076,-0.033962 0.08151,-0.033962 0.04415,-0.0034 0.08491,0.02717 0.04075,0.030566 0.06113,0.095095 0,0.4211358 -0.0034,0.8354792 -0.0034,0.4109471 -0.0034,0.8320831 0.227549,-0.0068 0.455099,-0.0068 0.227548,-0.0034 0.458494,-0.010189 z"
         style="font-style:normal;font-variant:normal;font-weight:normal;font-stretch:normal;font-size:3.88055563px;line-height:1.25;font-family:'Chalkboard SE';-inkscape-font-specification:'Chalkboard SE, Normal';font-variant-ligatures:normal;font-variant-caps:normal;font-variant-numeric:normal;font-feature-settings:normal;text-align:center;letter-spacing:0px;word-spacing:0px;writing-mode:lr-tb;text-anchor:middle;fill:#000000;fill-opacity:1;stroke:none;stroke-width:0.20956449"
         id="path851"
         inkscape:connector-curvature="0" />
      <rect
         y="10.297375"
         x="8.2077522"
         height="0.42581618"
         width="10.994685"
         id="rect871"
         style="opacity:1;fill:#ff7500;fill-opacity:0.98039216;fill-rule:nonzero;stroke:none;stroke-width:2.04246712;stroke-linecap:round;stroke-linejoin:round;stroke-miterlimit:4;stroke-dasharray:none;stroke-dashoffset:0;stroke-opacity:1;paint-order:stroke markers fill" />
    </g>
  </g>
</svg>
